<?xml version="1.0" encoding="UTF-8" standalone="no"?>
<svg width="579px" height="181px" viewBox="0 0 579 181" version="1.1" xmlns="http://www.w3.org/2000/svg" xmlns:xlink="http://www.w3.org/1999/xlink">
    <!-- Generator: Sketch 3.7.2 (28276) - http://www.bohemiancoding.com/sketch -->
    <title>Logo_New_White</title>
    <desc>Created with Sketch.</desc>
    <defs></defs>
    <g id="Page-1" stroke="none" stroke-width="1" fill="none" fill-rule="evenodd">
        <g id="Logo_New" transform="translate(1.000000, 0.000000)">
            <g id="Group-6" transform="translate(31.000000, 0.000000)" fill="#F17125">
                <path d="M68.77,0.728 C67.18,6.25 65.605,11.776 64.016,17.298 C63.694,18.417 63.531,21.815 62.118,22.189 C61.209,22.43 60.089,22.264 59.141,22.264 C56.928,22.264 54.706,22.325 52.494,22.264 C51.207,22.264 49.932,22.059 48.641,22.132 C46.297,22.265 46.635,25.001 46.237,26.889 C41.257,50.51 38.23,61.926 37.168,66.854 C32.251,64.885 27.493,62.081 23.051,59.217 C21.018,57.906 19.033,56.519 17.109,55.051 C16.187,54.348 15.28,53.626 14.389,52.885 C13.953,52.523 13.521,52.156 13.092,51.784 C13.291,50.907 18.327,34.265 21.057,22.264 L4.123,22.264 C5.331,16.605 6.878,11.016 7.819,5.301 C8.062,3.823 7.744,0.728 9.877,0.728 C10.037,0.71 10.209,0.728 10.369,0.728 L19.773,0.728 L54.039,0.728 L68.77,0.728" id="Fill-4"></path>
                <path d="M115.396,150.921 C109.875,159.563 102.424,166.939 93.488,172.015 C83.846,177.493 73.175,179.762 62.152,179.89 C52.495,180.003 42.396,179.687 32.965,177.42 C21.972,174.778 11.321,169.032 5.536,158.961 C-1.739,146.297 -0.59,129.856 2.169,116.065 C7.373,118.433 12.768,120.369 18.26,121.95 C20.907,122.712 23.577,123.39 26.261,124.009 C26.899,124.156 27.539,124.3 28.181,124.431 C28.06,125.107 27.945,125.784 27.837,126.462 C27.584,128.054 27.372,129.654 27.236,131.261 C26.817,136.21 27.025,141.423 29.699,145.762 C32.184,149.794 36.318,152.686 40.563,154.627 C49.555,158.739 60.39,158.682 69.896,156.556 C79.377,154.437 87.699,149.332 92.774,140.902 C94.604,137.864 95.996,134.583 97.116,131.224 C97.645,129.633 98.115,128.024 98.545,126.404 C100.426,126.135 102.305,125.848 104.179,125.532 C111.845,124.239 119.43,122.537 126.913,120.43 C124.588,131.142 121.337,141.621 115.396,150.921 Z" id="Fill-5"></path>
                <path d="M165.73,0.728 C164.401,6.422 162.931,12.115 161.834,17.859 C161.457,19.833 161.406,21.06 159.145,20.878 C156.262,20.645 153.386,20.614 150.495,20.608 C149.14,20.604 144.281,19.74 143.951,21.596 C143.438,24.488 142.846,27.367 142.285,30.252 C141.137,36.151 139.931,42.039 138.762,47.934 C134.38,70.045 133.033,76.826 132.886,77.613 C131.74,77.777 113.47,79.823 105.468,79.823 C112.893,44.947 110.795,55.65 118.017,20.73 L102.618,20.73 C103.971,14.914 105.522,9.139 106.585,3.258 C106.795,2.098 106.775,0.728 108.272,0.728 L108.995,0.728 L119.136,0.728 L153.344,0.728 L165.73,0.728" id="Fill-7"></path>
            </g>
            <polyline id="Fill-8" fill="#FFFFFF" points="333.273 158.615 336.108 146.654 356.33 61.03 323.118 61.03 319.955 73.03 338.933 73.03 315.21 168.03 297.813 168.03 296.232 179.03 346.841 179.03 348.422 168.03 331.025 168.03 333.273 158.615"></polyline>
            <path d="M413.265,68.864 C440.954,68.674 444.896,94.03 444.896,94.03 L455.967,94.03 L463.874,58.03 L451.222,58.03 L448.059,75.199 C448.059,75.199 441.676,59.156 413.265,57.924 C394.076,57.924 375.258,66.972 373.561,86.537 C370.787,118.534 424.4,121.163 432.982,140.721 C433.978,142.991 434.369,145.484 433.993,148.283 C433.946,148.63 433.896,148.976 433.825,149.332 C432.127,157.921 427.166,168.25 405.358,168.25 C388.637,168.25 379.814,160.614 375.566,155.06 C373.062,151.785 372.145,149.03 372.145,149.03 L357.911,149.03 L353.167,179.03 L365.819,179.03 L367.473,164.118 L367.665,164.327 C367.665,164.327 374.91,179.253 403.776,179.253 C424.793,179.253 443.867,175.157 446.478,149.314 C446.578,148.32 446.62,147.367 446.626,146.427 C446.641,143.898 446.325,141.565 445.723,139.396 C438.141,112.099 385.493,111.376 385.52,87.832 C386.683,80.057 392.52,69.007 413.265,68.864" id="Fill-9" fill="#FFFFFF"></path>
            <path d="M223.747,80.846 C219.875,88.322 212.133,93.511 204.741,97.05 C196.211,101.134 186.798,103.33 177.324,103.182 C173.994,103.13 168.959,102.82 167.576,99.131 C162.18,100.992 156.694,102.579 151.155,103.953 C140.423,106.616 129.465,108.441 118.449,109.407 C95.371,111.43 71.596,110.111 49.26,103.683 C29.606,98.027 6.663,86.81 0.261,65.669 C-2.261,57.338 14.025,40.915 25.46,39.983 C24.529,40.306 8.172,49.298 15.88,60.038 C42.795,97.542 104.903,103.936 167.229,96.337 C167.269,95.452 167.44,94.549 167.724,93.712 C169.156,89.487 173.057,86.363 176.607,83.938 C182.108,80.182 188.235,77.338 194.367,74.786 C199.382,72.7 204.15,71.291 209.598,71.109 C215.148,70.923 228.263,72.107 223.747,80.846 C217.919,92.099 228.807,71.055 223.747,80.846" id="Fill-3" fill="#FFFFFF"></path>
            <path d="M522.391,68.924 C549.393,68.924 552.44,95.726 552.44,95.726 L565.637,95.304 L577.745,58.03 L565.093,58.03 L558.766,80.031 C558.766,80.031 553.583,58.621 520.81,57.924 C479.053,57.924 457.548,101.766 457.548,125.699 C457.548,129.7 457.693,133.853 458.134,138.01 C458.365,140.18 458.677,142.344 459.092,144.487 C462.635,162.797 473.708,179.287 506.036,179.287 C549.399,179.287 555.603,152.484 555.603,152.484 L546.114,147.754 C546.114,147.754 536.904,167.094 507.744,167.094 C485.876,167.094 474.957,157.481 471.415,142.416 C470.971,140.526 470.643,138.55 470.424,136.497 C470.06,133.092 469.996,129.475 470.2,125.681 C471.659,98.572 495.39,68.924 522.391,68.924" id="Fill-10" fill="#FFFFFF"></path>
            <path d="M195.013,38.905 C193.21,46.814 193.432,53.03 193.432,53.03 L206.084,53.03 L204.178,61.586 C205.798,61.347 207.487,61.174 209.262,61.114 C209.699,61.1 210.17,61.091 210.669,61.091 C213.545,61.091 216.778,61.328 219.928,62.037 C220.849,57.874 221.536,54.777 221.899,53.159 C289.662,47.813 297.939,88.974 291.487,116.222 C288.27,129.807 282.936,139.671 276.245,146.853 C269.072,154.553 260.339,159.168 250.965,161.949 C233.013,167.274 212.722,165.896 196.595,166.672 C196.865,165.602 197.327,163.639 197.937,160.986 C198.967,156.507 200.425,150.041 202.123,142.447 C204.56,131.546 207.488,118.339 210.346,105.421 C209.915,105.637 209.5,105.859 209.06,106.07 C203.926,108.528 198.53,110.368 193.045,111.563 L186.582,140.578 L182.248,160.231 L180.779,167.03 L164.702,167.03 L164.702,179.285 C226.656,181.783 262.005,178.19 282.566,161.306 C287.393,157.342 291.463,152.644 294.784,147.121 C299.787,138.8 303.282,128.578 305.688,116.189 C313.549,75.711 301.695,29.56 195.013,38.905" id="Fill-1" fill="#FFFFFF"></path>
            <path d="M353.167,35.816 C359.281,35.816 364.238,30.875 364.238,24.78 C364.238,18.685 359.281,13.744 353.167,13.744 C347.053,13.744 342.096,18.685 342.096,24.78 C342.096,30.875 347.053,35.816 353.167,35.816" id="Fill-11" fill="#FFFFFF"></path>
        </g>
    </g>
</svg>